<svg width="25" height="31" fill="none" xmlns="http://www.w3.org/2000/svg"><path fill-rule="evenodd" clip-rule="evenodd" d="M14.908 12.219c-.153-.865-.952-1.446-1.796-1.296-.838.149-1.391.98-1.24 1.835l.843 4.736-1.012.18L9.93 7.706c-.155-.875-.955-1.465-1.8-1.315-.837.149-1.393.97-1.235 1.854l1.92 10.807C6.323 17.11 3.13 15.058 2.214 16.43c-.896 1.344 2.5 4.003 7.688 10.212 2.337 2.798 4.976 4.55 8.78 3.875 4.192-.745 6.962-4.875 6.19-9.225l-1.493-8.395c-.155-.874-.955-1.463-1.799-1.313-.838.15-1.391.98-1.236 1.852l.465 2.619-1.012.18-.655-3.685c-.153-.865-.952-1.447-1.796-1.296-.838.149-1.394.965-1.24 1.835l.47 2.635-1.013.18-.655-3.685Z" fill="#fff"/><path d="m16.75 8.448-.045 1.064-4.112-.244.046-1.064 4.11.244h.001ZM7.517 0l.747 4.2-1.012.18-.747-4.2L7.517 0ZM11.57 5.64l-.781-.703 2.676-3.202.781.703-2.675 3.202ZM4.934 10.629l-.41-.983L.75 11.292l.409.983 3.776-1.646ZM4.643 6.872l.492-.93L1.52 3.858l-.492.929 3.615 2.085Z" fill="#1986EC"/></svg>